<svg width="488" height="134" viewBox="0 0 488 134" fill="none" xmlns="http://www.w3.org/2000/svg">
<path d="M34.4247 118.818V0.636357H41.9957V118.818H34.4247ZM54.5064 39.6456C54.1371 35.9216 52.5521 33.0286 49.7514 30.9666C46.9508 28.9046 43.1499 27.8736 38.3487 27.8736C35.0864 27.8736 32.3319 28.3352 30.0852 29.2585C27.8385 30.151 26.1151 31.3975 24.9148 32.9979C23.7453 34.5982 23.1605 36.4141 23.1605 38.4453C23.099 40.138 23.4529 41.6153 24.2223 42.8771C25.0225 44.139 26.1151 45.2315 27.5 46.1548C28.8849 47.0473 30.4853 47.8321 32.3011 48.5092C34.117 49.1555 36.0559 49.7095 38.1179 50.1712L46.6122 52.2024C50.7363 53.1257 54.5218 54.3568 57.9688 55.8956C61.4157 57.4344 64.401 59.3272 66.9247 61.5739C69.4484 63.8205 71.4027 66.4673 72.7876 69.5142C74.2034 72.5611 74.9266 76.0542 74.9574 79.9936C74.9266 85.7796 73.4493 90.7962 70.5256 95.0433C67.6326 99.2597 63.447 102.537 57.9688 104.876C52.5213 107.185 45.9505 108.339 38.2564 108.339C30.6238 108.339 23.9761 107.169 18.3132 104.83C12.6811 102.491 8.28007 99.0289 5.11009 94.4432C1.97088 89.8267 0.324337 84.1177 0.170454 77.316H19.5135C19.7289 80.486 20.6368 83.1328 22.2372 85.2564C23.8684 87.3492 26.0381 88.9342 28.7464 90.0114C31.4856 91.0578 34.5786 91.581 38.0256 91.581C41.411 91.581 44.3501 91.0885 46.843 90.1037C49.3667 89.1188 51.321 87.7493 52.706 85.995C54.0909 84.2408 54.7834 82.2249 54.7834 79.9474C54.7834 77.8239 54.1525 76.0388 52.8906 74.5923C51.6596 73.1458 49.8438 71.9148 47.4432 70.8991C45.0734 69.8835 42.165 68.9602 38.718 68.1293L28.4233 65.544C20.4522 63.6051 14.1584 60.5736 9.5419 56.4496C4.92543 52.3255 2.63258 46.7704 2.66335 39.7841C2.63258 34.0597 4.15601 29.0585 7.23367 24.7805C10.3421 20.5026 14.6046 17.1634 20.0213 14.7628C25.438 12.3622 31.5933 11.1619 38.4872 11.1619C45.5043 11.1619 51.6288 12.3622 56.8608 14.7628C62.1236 17.1634 66.2169 20.5026 69.1406 24.7805C72.0644 29.0585 73.5724 34.0135 73.6648 39.6456H54.5064ZM84.802 28.9354V12.4545H162.451V28.9354H133.506V107H113.747V28.9354H84.802ZM167.506 107V36.0909H186.572V48.4631H187.311C188.604 44.062 190.773 40.7382 193.82 38.4915C196.867 36.214 200.376 35.0753 204.346 35.0753C205.331 35.0753 206.392 35.1368 207.531 35.2599C208.67 35.383 209.67 35.5523 210.532 35.7678V53.218C209.608 52.941 208.331 52.6948 206.7 52.4794C205.069 52.264 203.576 52.1562 202.222 52.1562C199.329 52.1562 196.744 52.7872 194.466 54.049C192.22 55.2801 190.435 57.0035 189.111 59.2195C187.819 61.4354 187.172 63.9898 187.172 66.8828V107H167.506ZM249.714 108.385C242.42 108.385 236.142 106.908 230.879 103.953C225.647 100.968 221.615 96.7514 218.784 91.304C215.952 85.8258 214.537 79.3473 214.537 71.8686C214.537 64.5746 215.952 58.1731 218.784 52.6641C221.615 47.1551 225.601 42.8617 230.74 39.7841C235.911 36.7064 241.974 35.1676 248.929 35.1676C253.607 35.1676 257.962 35.9216 261.994 37.4297C266.056 38.907 269.596 41.1383 272.612 44.1236C275.659 47.1089 278.029 50.8636 279.721 55.3878C281.414 59.8812 282.26 65.1439 282.26 71.1761V76.5774H222.385V64.3899H263.748C263.748 61.5585 263.133 59.0502 261.902 56.8651C260.671 54.6799 258.962 52.9718 256.777 51.7408C254.623 50.4789 252.115 49.848 249.252 49.848C246.267 49.848 243.62 50.5405 241.312 51.9254C239.035 53.2796 237.25 55.1108 235.957 57.419C234.664 59.6965 234.003 62.2356 233.972 65.0362V76.6236C233.972 80.1321 234.618 83.1636 235.911 85.718C237.234 88.2725 239.096 90.2422 241.497 91.6271C243.897 93.0121 246.744 93.7045 250.037 93.7045C252.222 93.7045 254.223 93.3968 256.039 92.7812C257.855 92.1657 259.409 91.2424 260.701 90.0114C261.994 88.7803 262.979 87.2723 263.656 85.4872L281.845 86.6875C280.922 91.0578 279.029 94.8741 276.167 98.1364C273.335 101.368 269.673 103.892 265.179 105.707C260.717 107.492 255.562 108.385 249.714 108.385ZM315.314 108.339C310.79 108.339 306.758 107.554 303.219 105.984C299.68 104.384 296.879 102.03 294.817 98.9212C292.786 95.782 291.77 91.8733 291.77 87.1953C291.77 83.2559 292.493 79.9474 293.94 77.2699C295.386 74.5923 297.356 72.438 299.849 70.8068C302.342 69.1757 305.173 67.9446 308.343 67.1136C311.544 66.2827 314.899 65.6979 318.407 65.3594C322.531 64.9285 325.855 64.5284 328.379 64.1591C330.903 63.759 332.734 63.1742 333.873 62.4048C335.011 61.6354 335.581 60.4967 335.581 58.9886V58.7116C335.581 55.7879 334.657 53.5258 332.811 51.9254C330.995 50.325 328.41 49.5249 325.055 49.5249C321.516 49.5249 318.7 50.3097 316.607 51.8793C314.514 53.4181 313.129 55.357 312.452 57.696L294.263 56.2188C295.186 51.91 297.002 48.1861 299.711 45.0469C302.419 41.8769 305.912 39.4455 310.19 37.7528C314.499 36.0294 319.484 35.1676 325.147 35.1676C329.087 35.1676 332.857 35.6293 336.458 36.5526C340.089 37.4759 343.306 38.907 346.106 40.8459C348.938 42.7848 351.169 45.2777 352.8 48.3246C354.431 51.3407 355.247 54.9569 355.247 59.1733V107H336.596V97.1669H336.042C334.904 99.3828 333.38 101.337 331.472 103.03C329.564 104.692 327.271 106 324.593 106.954C321.916 107.877 318.823 108.339 315.314 108.339ZM320.946 94.7663C323.839 94.7663 326.394 94.197 328.61 93.0582C330.826 91.8887 332.565 90.3191 333.826 88.3494C335.088 86.3797 335.719 84.1484 335.719 81.6555V74.1307C335.104 74.5308 334.257 74.9001 333.18 75.2386C332.134 75.5464 330.949 75.8388 329.625 76.1158C328.302 76.362 326.979 76.5928 325.655 76.8082C324.332 76.9929 323.132 77.1622 322.054 77.316C319.746 77.6546 317.73 78.1932 316.007 78.9318C314.283 79.6705 312.944 80.6707 311.99 81.9325C311.036 83.1636 310.559 84.7024 310.559 86.549C310.559 89.2266 311.529 91.2732 313.468 92.6889C315.437 94.0739 317.93 94.7663 320.946 94.7663ZM408.221 36.0909V50.8636H365.518V36.0909H408.221ZM375.213 19.1023H394.879V85.2102C394.879 87.026 395.156 88.4418 395.71 89.4574C396.264 90.4422 397.034 91.1347 398.018 91.5348C399.034 91.9349 400.204 92.1349 401.527 92.1349C402.45 92.1349 403.374 92.058 404.297 91.9041C405.22 91.7195 405.928 91.581 406.42 91.4886L409.513 106.123C408.529 106.431 407.144 106.785 405.359 107.185C403.574 107.616 401.404 107.877 398.849 107.969C394.11 108.154 389.955 107.523 386.385 106.077C382.846 104.63 380.091 102.384 378.121 99.3366C376.152 96.2898 375.182 92.4427 375.213 87.7955V19.1023ZM433.173 133.591C430.68 133.591 428.341 133.391 426.156 132.991C424.002 132.621 422.217 132.144 420.801 131.56L425.233 116.879C427.541 117.587 429.618 117.972 431.465 118.033C433.342 118.095 434.958 117.664 436.312 116.741C437.697 115.817 438.82 114.248 439.682 112.032L440.836 109.031L415.4 36.0909H436.081L450.762 88.1648H451.5L466.319 36.0909H487.14L459.579 114.663C458.256 118.48 456.455 121.804 454.178 124.635C451.931 127.497 449.084 129.698 445.637 131.237C442.19 132.806 438.036 133.591 433.173 133.591Z" fill="#ECF1FF" fill-opacity="0.6"/>
</svg>
