<svg width="1920" height="1523" viewBox="0 0 1920 1523" fill="none" xmlns="http://www.w3.org/2000/svg">
<g opacity="0.1">
<path opacity="0.0714286" d="M1963.91 1283.69C1939.88 1105.03 1788.67 740.116 1376.1 709.699C860.381 671.676 508.842 201.321 739.107 138.45L755.459 134.131" stroke="black"/>
<path opacity="0.142857" d="M1968.81 1284.75C1918.32 1108.89 1713.61 754.864 1298.64 745.63C779.931 734.088 360.241 285.706 579.966 211.716L595.591 206.607" stroke="black"/>
<path opacity="0.214286" d="M1974.5 1285.56C1898.24 1113.74 1642.21 773.085 1228.22 785.035C710.725 799.972 226.948 376.691 434.466 292.145L449.245 286.284" stroke="black"/>
<path opacity="0.285714" d="M1980.95 1286.06C1879.76 1119.48 1574.95 794.564 1165.29 827.525C653.216 868.727 109.857 473.442 303.59 378.982L317.411 372.413" stroke="black"/>
<path opacity="0.357143" d="M1988.11 1286.23C1863.01 1126.04 1512.3 819.063 1110.28 872.695C607.754 939.735 9.71924 575.088 188.195 471.432L200.953 464.206" stroke="black"/>
<path opacity="0.428571" d="M1995.92 1286.02C1848.1 1133.31 1454.67 846.326 1063.52 920.121C574.591 1012.36 -72.8576 680.729 89.006 568.663L100.603 560.834" stroke="black"/>
<path opacity="0.5" d="M2004.33 1285.42C1835.12 1141.2 1402.43 876.078 1025.29 969.366C553.876 1085.98 -137.413 789.439 6.60856 669.816L16.9572 661.444" stroke="black"/>
<path opacity="0.571429" d="M2013.27 1284.39C1824.15 1149.6 1355.9 908.027 995.793 1019.98C545.655 1159.93 -183.638 900.28 -58.5516 774.008L-49.5304 765.157" stroke="black"/>
<path opacity="0.642857" d="M2022.67 1282.9C1815.25 1158.42 1315.37 941.872 975.147 1071.52C549.872 1233.58 -211.372 1012.31 -106.171 880.346L-98.5464 871.084" stroke="black"/>
<path opacity="0.714286" d="M2032.46 1280.94C1808.46 1167.54 1281.05 977.296 963.415 1123.53C566.369 1306.31 -220.606 1124.58 -136.091 987.927L-129.92 978.323" stroke="black"/>
<path opacity="0.785714" d="M2042.56 1278.48C1803.8 1176.85 1253.13 1013.98 960.579 1175.54C594.892 1377.5 -211.483 1236.15 -148.294 1095.85L-143.625 1085.98" stroke="black"/>
<path opacity="0.857143" d="M2052.89 1275.52C1801.27 1186.28 1231.73 1051.67 966.506 1227.21C634.973 1446.64 -184.41 1346.28 -142.992 1203.4L-139.856 1193.34" stroke="black"/>
<path opacity="0.928571" d="M2063.4 1272.05C1800.89 1195.65 1216.92 1089.85 981.163 1277.88C686.462 1512.92 -139.507 1453.64 -120.227 1309.26L-118.653 1299.08" stroke="black"/>
<path d="M2074 1268.05C1802.61 1204.89 1208.72 1128.3 1004.24 1327.24C748.645 1575.93 -77.5411 1557.62 -80.5481 1412.84V1402.62" stroke="black"/>
</g>
</svg>
