<svg width="1920" height="1985" viewBox="0 0 1920 1985" fill="none" xmlns="http://www.w3.org/2000/svg">
<g opacity="0.1">
<path opacity="0.0714286" d="M-9.7562 1673.26C12.5655 1440.39 153.004 964.729 536.185 925.08C1015.16 875.518 1341.66 262.419 1127.8 180.467L1112.61 174.837" stroke="black"/>
<path opacity="0.142857" d="M-14.3006 1674.65C32.5872 1445.42 222.714 983.952 608.121 971.916C1089.88 956.871 1479.67 372.413 1275.6 275.969L1261.09 269.308" stroke="black"/>
<path opacity="0.214286" d="M-19.5885 1675.7C51.243 1451.74 289.031 1007.7 673.53 1023.28C1154.15 1042.75 1603.47 491.01 1410.73 380.807L1397.01 373.166" stroke="black"/>
<path opacity="0.285714" d="M-25.5798 1676.36C68.4053 1459.22 351.495 1035.7 731.972 1078.66C1207.57 1132.37 1712.22 617.124 1532.29 493.997L1519.45 485.434" stroke="black"/>
<path opacity="0.357143" d="M-32.2288 1676.57C83.9597 1467.77 409.682 1067.63 783.064 1137.54C1249.79 1224.93 1805.22 749.618 1639.46 614.503L1627.61 605.084" stroke="black"/>
<path opacity="0.428571" d="M-39.4848 1676.31C97.8059 1477.25 463.208 1103.17 826.489 1199.36C1280.59 1319.6 1881.92 887.318 1731.58 741.243L1720.81 731.038" stroke="black"/>
<path opacity="0.5" d="M-47.2928 1675.52C109.858 1487.53 511.728 1141.95 861.995 1263.55C1299.83 1415.55 1941.87 1029.02 1808.11 873.093L1798.5 862.181" stroke="black"/>
<path opacity="0.571429" d="M-55.5932 1674.17C120.046 1498.49 554.94 1183.6 889.396 1329.53C1307.47 1511.95 1984.8 1173.5 1868.63 1008.91L1860.25 997.369" stroke="black"/>
<path opacity="0.642857" d="M-64.3229 1672.24C128.315 1509.98 592.587 1227.71 908.57 1396.71C1303.55 1607.95 2010.56 1319.53 1912.86 1147.52L1905.77 1135.44" stroke="black"/>
<path opacity="0.714286" d="M-73.4155 1669.68C134.625 1521.87 624.459 1273.89 919.467 1464.5C1288.23 1702.75 2019.14 1465.87 1940.64 1287.75L1934.91 1275.23" stroke="black"/>
<path opacity="0.785714" d="M-82.8017 1666.48C138.954 1534.01 650.392 1321.7 922.101 1532.3C1261.74 1795.54 2010.66 1611.3 1951.98 1428.42L1947.64 1415.55" stroke="black"/>
<path opacity="0.857143" d="M-92.4101 1662.63C141.293 1546.26 670.27 1370.73 916.551 1599.54C1224.4 1885.54 1985.41 1754.63 1946.97 1568.38L1944.06 1555.26" stroke="black"/>
<path opacity="0.928571" d="M-102.168 1658.1C141.651 1558.49 684.024 1420.55 902.964 1665.64C1176.64 1971.99 1943.76 1894.68 1925.88 1706.48L1924.42 1693.21" stroke="black"/>
<path d="M-112 1652.89C140.052 1570.55 691.635 1470.72 881.547 1730.04C1118.94 2054.2 1886.27 2030.33 1889.06 1841.61V1828.29" stroke="black"/>
</g>
</svg>
