<svg width="187" height="77" viewBox="0 0 187 77" fill="none" xmlns="http://www.w3.org/2000/svg">
<path d="M0.556818 59V0.81818H12.858V48.858H37.8011V59H0.556818ZM65.4361 59.8523C61.0232 59.8523 57.2069 58.9148 53.9872 57.0398C50.7865 55.1458 48.3149 52.5133 46.5724 49.142C44.83 45.7519 43.9588 41.822 43.9588 37.3523C43.9588 32.8447 44.83 28.9053 46.5724 25.5341C48.3149 22.1439 50.7865 19.5114 53.9872 17.6364C57.2069 15.7424 61.0232 14.7955 65.4361 14.7955C69.849 14.7955 73.6558 15.7424 76.8565 17.6364C80.0762 19.5114 82.5573 22.1439 84.2997 25.5341C86.0421 28.9053 86.9134 32.8447 86.9134 37.3523C86.9134 41.822 86.0421 45.7519 84.2997 49.142C82.5573 52.5133 80.0762 55.1458 76.8565 57.0398C73.6558 58.9148 69.849 59.8523 65.4361 59.8523ZM65.4929 50.4773C67.5005 50.4773 69.1766 49.9091 70.5213 48.7727C71.866 47.6174 72.8793 46.0455 73.5611 44.0568C74.2618 42.0682 74.6122 39.8049 74.6122 37.267C74.6122 34.7292 74.2618 32.4659 73.5611 30.4773C72.8793 28.4886 71.866 26.9167 70.5213 25.7614C69.1766 24.6061 67.5005 24.0284 65.4929 24.0284C63.4664 24.0284 61.7618 24.6061 60.3793 25.7614C59.0156 26.9167 57.9834 28.4886 57.2827 30.4773C56.6009 32.4659 56.2599 34.7292 56.2599 37.267C56.2599 39.8049 56.6009 42.0682 57.2827 44.0568C57.9834 46.0455 59.0156 47.6174 60.3793 48.7727C61.7618 49.9091 63.4664 50.4773 65.4929 50.4773ZM114.442 76.2727C110.521 76.2727 107.16 75.733 104.357 74.6534C101.572 73.5928 99.3565 72.1439 97.7088 70.3068C96.0611 68.4697 94.991 66.4053 94.4986 64.1136L105.692 62.608C106.033 63.4792 106.572 64.2936 107.311 65.0511C108.05 65.8087 109.025 66.4148 110.237 66.8693C111.468 67.3428 112.964 67.5795 114.726 67.5795C117.358 67.5795 119.527 66.9356 121.232 65.6477C122.955 64.3788 123.817 62.2481 123.817 59.2557V51.2727H123.305C122.775 52.4848 121.98 53.6307 120.919 54.7102C119.858 55.7898 118.495 56.6705 116.828 57.3523C115.161 58.0341 113.173 58.375 110.862 58.375C107.586 58.375 104.603 57.6174 101.913 56.1023C99.2429 54.5682 97.1122 52.2292 95.5213 49.0852C93.9493 45.9223 93.1634 41.9261 93.1634 37.0966C93.1634 32.1534 93.9683 28.0246 95.5781 24.7102C97.188 21.3958 99.3281 18.9148 101.999 17.267C104.688 15.6193 107.633 14.7955 110.834 14.7955C113.277 14.7955 115.322 15.2121 116.97 16.0455C118.618 16.8598 119.944 17.8826 120.947 19.1136C121.97 20.3258 122.756 21.5189 123.305 22.6932H123.76V15.3636H135.777V59.4261C135.777 63.1383 134.868 66.2443 133.05 68.7443C131.232 71.2443 128.713 73.1193 125.493 74.3693C122.292 75.6383 118.608 76.2727 114.442 76.2727ZM114.697 49.2841C116.648 49.2841 118.296 48.8011 119.641 47.8352C121.004 46.8504 122.046 45.4489 122.766 43.6307C123.504 41.7936 123.874 39.5966 123.874 37.0398C123.874 34.483 123.514 32.267 122.794 30.392C122.074 28.4981 121.033 27.0303 119.669 25.9886C118.305 24.947 116.648 24.4261 114.697 24.4261C112.709 24.4261 111.033 24.9659 109.669 26.0455C108.305 27.1061 107.273 28.5833 106.572 30.4773C105.872 32.3712 105.521 34.5587 105.521 37.0398C105.521 39.5587 105.872 41.7367 106.572 43.5739C107.292 45.392 108.324 46.803 109.669 47.8068C111.033 48.7917 112.709 49.2841 114.697 49.2841ZM165.124 59.8523C160.711 59.8523 156.894 58.9148 153.675 57.0398C150.474 55.1458 148.002 52.5133 146.26 49.142C144.518 45.7519 143.646 41.822 143.646 37.3523C143.646 32.8447 144.518 28.9053 146.26 25.5341C148.002 22.1439 150.474 19.5114 153.675 17.6364C156.894 15.7424 160.711 14.7955 165.124 14.7955C169.536 14.7955 173.343 15.7424 176.544 17.6364C179.764 19.5114 182.245 22.1439 183.987 25.5341C185.73 28.9053 186.601 32.8447 186.601 37.3523C186.601 41.822 185.73 45.7519 183.987 49.142C182.245 52.5133 179.764 55.1458 176.544 57.0398C173.343 58.9148 169.536 59.8523 165.124 59.8523ZM165.18 50.4773C167.188 50.4773 168.864 49.9091 170.209 48.7727C171.554 47.6174 172.567 46.0455 173.249 44.0568C173.949 42.0682 174.3 39.8049 174.3 37.267C174.3 34.7292 173.949 32.4659 173.249 30.4773C172.567 28.4886 171.554 26.9167 170.209 25.7614C168.864 24.6061 167.188 24.0284 165.18 24.0284C163.154 24.0284 161.449 24.6061 160.067 25.7614C158.703 26.9167 157.671 28.4886 156.97 30.4773C156.288 32.4659 155.947 34.7292 155.947 37.267C155.947 39.8049 156.288 42.0682 156.97 44.0568C157.671 46.0455 158.703 47.6174 160.067 48.7727C161.449 49.9091 163.154 50.4773 165.18 50.4773Z" fill="black"/>
</svg>
