<?xml version="1.0" encoding="UTF-8"?> <svg xmlns="http://www.w3.org/2000/svg" width="1178" height="256" viewBox="0 0 1178 256" fill="none"><path fill-rule="evenodd" clip-rule="evenodd" d="M124.164 111.047C124.164 50.2627 113.943 25.0657 85.8425 25.0657C61.0588 25.0657 48.5403 42.7295 48.5403 104.035C48.5403 164.558 58.2488 189.497 86.8636 189.497C112.156 189.497 124.164 172.091 124.164 111.047ZM0 109.49C0 41.1702 46.2408 14.1562 87.3761 14.1562C131.317 14.1562 172.704 40.9126 172.704 105.333C172.704 174.169 126.463 200.407 85.328 200.407C41.3886 200.407 0 171.833 0 109.49Z" fill="#164951"></path><path fill-rule="evenodd" clip-rule="evenodd" d="M380.78 113.902L424.466 111.564C424.466 80.1337 420.381 68.7032 405.051 68.7032C392.02 68.7032 381.801 81.172 380.78 113.902ZM340.414 129.228C340.414 84.0291 373.369 58.832 407.093 58.832C441.938 58.832 463.806 76.3362 465.051 122.132C465.077 123.023 464.364 123.773 463.484 123.773H382.384C381.504 123.773 380.793 124.524 380.815 125.417C381.958 166.678 397.726 178.065 423.7 178.065C436.377 178.065 446.598 175.07 455.152 171.212C455.782 170.927 456.513 171.095 456.963 171.63L460.36 175.693C460.872 176.306 460.866 177.212 460.324 177.795C451.005 187.788 432.032 200.405 407.093 200.405C362.639 200.405 340.414 173.389 340.414 129.228Z" fill="#164951"></path><path fill-rule="evenodd" clip-rule="evenodd" d="M866.503 131.306C866.503 78.8339 856.542 68.9628 839.167 68.9628C823.071 68.9628 813.62 80.9124 813.62 125.592C813.62 178.845 822.05 190.272 840.699 190.272C856.031 190.272 866.503 181.181 866.503 131.306ZM770.699 130.009C770.699 80.1317 805.443 58.832 839.935 58.832C876.98 58.832 909.426 81.4315 909.426 128.709C909.426 178.584 875.191 200.407 839.935 200.407C802.89 200.407 770.699 177.544 770.699 130.009Z" fill="#164951"></path><path fill-rule="evenodd" clip-rule="evenodd" d="M1018.88 131.306C1018.88 78.8339 1008.92 68.9628 991.548 68.9628C975.451 68.9628 966 80.9124 966 125.592C966 178.845 974.432 190.272 993.081 190.272C1008.41 190.272 1018.88 181.181 1018.88 131.306ZM923.078 130.009C923.078 80.1317 957.824 58.832 992.314 58.832C1029.36 58.832 1061.8 81.4315 1061.8 128.709C1061.8 178.584 1027.57 200.407 992.314 200.407C955.271 200.407 923.078 177.544 923.078 130.009Z" fill="#164951"></path><path fill-rule="evenodd" clip-rule="evenodd" d="M570.075 58.8345C551.426 58.8345 534.563 67.4078 521.024 77.277H520.001L520.503 60.8989C520.543 59.6431 519.478 58.6468 518.253 58.7865L482.502 62.9075C481.452 63.0273 480.656 63.9298 480.656 65.0059V195.23C480.656 196.368 481.564 197.288 482.681 197.288H519.252C520.37 197.288 521.277 196.368 521.277 195.23V86.3695C526.897 85.0697 536.095 82.9933 545.04 82.9933C557.046 82.9933 562.668 87.9289 562.668 103.774V195.23C562.668 196.368 563.575 197.288 564.692 197.288H601.519C602.636 197.288 603.546 196.368 603.546 195.23V93.6451C603.546 70.265 591.793 58.8345 570.075 58.8345Z" fill="#164951"></path><path fill-rule="evenodd" clip-rule="evenodd" d="M713.151 174.169C709.062 175.728 702.164 179.885 691.689 179.885C672.272 179.885 662.053 166.636 662.053 125.853C662.053 82.9905 674.827 69.224 693.221 69.224C702.676 69.224 708.807 74.6787 713.151 80.1334V174.169ZM753.771 33.3771C753.771 19.95 754.221 7.61302 754.459 2.54966C754.527 1.06818 753.29 -0.121791 751.839 0.00998478L715.043 4.25874C713.971 4.35658 713.151 5.26902 713.151 6.36515V42.7292C713.151 52.0792 713.661 61.6908 713.661 61.6908C708.296 60.1315 701.143 58.8337 694.246 58.8337C654.389 58.8337 620.152 80.395 620.152 134.427C620.152 181.702 644.934 200.406 670.228 200.406C688.112 200.406 702.419 193.133 713.406 183.523H714.427L713.908 197.861C713.85 199.388 715.161 200.596 716.648 200.382L751.7 196.403C752.888 196.235 753.771 195.201 753.771 193.981V33.3771Z" fill="#164951"></path><path fill-rule="evenodd" clip-rule="evenodd" d="M1156.75 58.832C1141.93 58.832 1127.37 70.2625 1119.45 78.8339H1118.43L1118.93 61.3777C1118.97 59.8922 1117.71 58.7102 1116.25 58.876L1080.93 62.9071C1079.88 63.0269 1079.09 63.9293 1079.09 65.0075V194.842C1079.09 196.192 1080.16 197.286 1081.49 197.286H1117.3C1118.63 197.286 1119.71 196.192 1119.71 194.842V89.4858C1123.28 86.1075 1129.16 82.7293 1133.76 82.7293C1136.06 82.7293 1137.59 83.2504 1139.12 86.1075C1143.98 94.1598 1147.82 98.8139 1158.8 98.8139C1168.76 98.8139 1177.67 90.7836 1177.67 78.3148C1177.67 65.5845 1169.01 58.832 1156.75 58.832Z" fill="#164951"></path><path fill-rule="evenodd" clip-rule="evenodd" d="M252.583 190.016C243.896 190.016 236.999 186.119 232.398 180.664V86.109C236.487 84.5517 242.874 81.433 253.093 81.433C272.51 81.433 283.497 94.4208 283.497 131.568C283.497 179.106 272.766 190.016 252.583 190.016ZM275.32 58.8355C257.435 58.8355 243.132 67.4069 232.398 76.759H231.122L231.615 61.2154C231.66 59.7999 230.458 58.6718 229.076 58.8315L193.623 62.9066C192.571 63.0284 191.777 63.9328 191.777 65.009V237.357V253.102C191.777 254.362 192.855 255.345 194.089 255.203L230.554 251.014C231.605 250.894 232.398 249.99 232.398 248.914V237.357V213.656C232.398 204.565 232.145 197.811 232.145 197.811C237.765 199.368 246.197 200.406 251.562 200.406C294.227 200.406 325.394 176.768 325.394 122.737C325.394 75.1996 299.591 58.8355 275.32 58.8355Z" fill="#164951"></path></svg> 