<?xml version="1.0" encoding="UTF-8"?> <svg xmlns="http://www.w3.org/2000/svg" width="74" height="74" viewBox="0 0 74 74" fill="none"><circle cx="36.8653" cy="37.3379" r="36.2186" fill="#97E1FC" stroke="white" stroke-width="0.565915"></circle><mask id="mask0_754_12718" style="mask-type:alpha" maskUnits="userSpaceOnUse" x="0" y="0" width="74" height="74"><circle cx="36.8653" cy="37.3379" r="36.2186" fill="#C4C4C4" stroke="white" stroke-width="0.565915"></circle></mask><g mask="url(#mask0_754_12718)"> </g><g clip-path="url(#clip0_754_12718)"><path fill-rule="evenodd" clip-rule="evenodd" d="M50.3843 54.4821H23.3958C22.7533 54.4821 22.1371 54.2269 21.6828 53.7725C21.2284 53.3182 20.9731 52.702 20.9731 52.0594V30.0496C20.9778 29.6289 21.092 29.2166 21.3044 28.8534C21.5168 28.4902 21.8201 28.1886 22.1845 27.9782L35.6787 19.7654C36.0583 19.5343 36.4941 19.4121 36.9385 19.4121C37.3829 19.4121 37.8187 19.5343 38.1983 19.7654L51.6683 27.9782C52.0327 28.1886 52.336 28.4902 52.5484 28.8534C52.7608 29.2166 52.8749 29.6289 52.8796 30.0496V52.0594C52.8797 52.3838 52.8147 52.7049 52.6885 53.0036C52.5622 53.3024 52.3773 53.5728 52.1445 53.7987C51.9118 54.0247 51.6361 54.2016 51.3337 54.319C51.0313 54.4363 50.7085 54.4918 50.3843 54.4821Z" fill="white"></path></g><defs><clipPath id="clip0_754_12718"><rect width="31.8458" height="35.068" fill="white" transform="translate(20.9731 19.4136)"></rect></clipPath></defs></svg> 