<?xml version="1.0" encoding="UTF-8"?> <svg xmlns="http://www.w3.org/2000/svg" width="74" height="74" viewBox="0 0 74 74" fill="none"><circle cx="36.5015" cy="36.5015" r="36.2186" fill="#164951" stroke="white" stroke-width="0.565915"></circle><path fill-rule="evenodd" clip-rule="evenodd" d="M65.5357 34.604V33.3842H63.9364V31L62.561 32.3955V32.958L62.9915 33.3885H61.0901V34.6082H62.561V38.7367C62.561 39.6989 63.0977 40.2276 64.0677 40.2276H65.5192V38.9849H64.3332C64.0261 38.9742 63.9335 38.8945 63.9335 38.5767V34.6061L65.5357 34.604ZM43.48 34.0673C43.2205 33.8054 42.9112 33.5983 42.5702 33.4581C42.2289 33.318 41.8629 33.248 41.494 33.2522H41.4552C40.6898 33.2515 39.9545 33.5505 39.4068 34.0852V33.3885H38.0314V42.8594H39.4133V39.5281C39.6008 39.7385 39.8246 39.9135 40.0741 40.0447C40.4728 40.2526 40.9158 40.3614 41.3656 40.3618H41.4014C41.7841 40.3643 42.1635 40.2912 42.5179 40.1466C42.8722 40.0024 43.1944 39.7893 43.4657 39.5195C43.8022 39.1571 44.0629 38.7312 44.2327 38.2667C44.4021 37.8024 44.4772 37.309 44.4536 36.8153C44.463 35.6845 44.12 34.7101 43.48 34.0673ZM41.306 39.15H41.1848C40.9776 39.1508 40.7723 39.1098 40.5813 39.0294C40.3901 38.9494 40.2171 38.8315 40.0726 38.6829C39.64 38.1505 39.4039 37.4854 39.4039 36.7995C39.4039 36.1135 39.64 35.4484 40.0726 34.9161C40.2176 34.7677 40.3908 34.6499 40.5821 34.5695C40.7736 34.4892 40.9793 34.4482 41.1869 34.449H41.306C42.3744 34.449 43.0653 35.3731 43.0653 36.7995C43.0653 38.2258 42.3736 39.15 41.306 39.15ZM30.0177 39.15C30.7402 39.15 31.2518 38.7711 31.3953 38.1333L31.4161 38.03H32.8145L32.7865 38.1821C32.5311 39.4958 31.4233 40.3446 29.9481 40.3446H29.9094C29.5108 40.3507 29.1149 40.2776 28.7449 40.1294C28.3747 39.9818 28.0374 39.7624 27.7526 39.4836C27.1026 38.8379 26.7718 37.9051 26.7718 36.7873C26.747 36.3052 26.8202 35.8232 26.987 35.3702C27.1534 34.917 27.4096 34.5021 27.7404 34.1505C28.0255 33.8655 28.3649 33.6405 28.7384 33.489C29.1119 33.3371 29.512 33.2619 29.9151 33.268C30.2871 33.2501 30.6587 33.3097 31.0064 33.443C31.3543 33.5763 31.6707 33.7803 31.9356 34.0422C32.2211 34.3419 32.4436 34.6959 32.5899 35.0832C32.7361 35.4707 32.8032 35.8834 32.7872 36.2972V37.0865H28.1429C28.2276 38.4497 29.0757 39.15 29.9 39.15H30.0177ZM29.9639 34.449H29.8448C29.019 34.449 28.4206 34.9986 28.2218 35.9249H31.3989C31.3228 35.0115 30.7811 34.449 29.9632 34.449H29.9639ZM35.7397 31.005L34.3643 32.4005V33.0319L34.723 33.3907H32.8949V34.6104H34.3657V38.7389C34.3657 39.701 34.9024 40.2298 35.8724 40.2298H37.3239V38.9878H36.1401C35.833 38.9771 35.7404 38.8974 35.7404 38.5796V34.609H37.3397V33.3892H35.7404L35.7397 31.005ZM21.5391 34.0034C22.09 33.4942 22.82 33.2239 23.5696 33.2515C25.1976 33.2515 26.2243 34.1232 26.2559 35.5288V35.6601H24.8755V35.5475C24.8677 35.3932 24.8289 35.2422 24.7614 35.1033C24.66 34.8928 24.4975 34.7177 24.295 34.6011C24.0933 34.4849 23.8612 34.4324 23.6292 34.4504H23.5122C22.86 34.4504 22.3693 34.7991 22.3929 35.2712C22.3929 35.63 22.545 35.8904 23.2984 36.0454L24.3302 36.2606C24.8309 36.3435 25.299 36.5632 25.6826 36.8956C25.8608 37.0696 25.9991 37.2801 26.088 37.5127C26.1768 37.7451 26.2145 37.994 26.1985 38.2424C26.1985 39.5016 25.1302 40.3453 23.5381 40.3453C21.8433 40.3453 20.7721 39.4757 20.7441 38.0723V37.9403H22.1117V38.0594C22.1734 38.7511 22.6857 39.1478 23.518 39.1478H23.6335C23.941 39.1609 24.2449 39.0779 24.5031 38.9103C24.6008 38.8452 24.6808 38.7567 24.7355 38.6528C24.79 38.5486 24.8174 38.4324 24.8152 38.3148C24.8152 38.0077 24.7097 37.7006 23.9355 37.5406L22.9784 37.3469C22.4548 37.2591 21.963 37.0365 21.5513 36.7012C21.3652 36.5344 21.2182 36.3286 21.1208 36.0985C21.0239 35.8684 20.979 35.6197 20.9895 35.3702C20.982 35.1161 21.0266 34.8631 21.1208 34.6269C21.2158 34.3918 21.3579 34.1786 21.5384 34.0005L21.5391 34.0034ZM53.6318 31.0696H52.2556V32.6057H53.6311L53.6318 31.0696ZM57.174 33.4553C57.526 33.3071 57.906 33.2375 58.2876 33.2515C59.7943 33.2515 60.7622 34.2187 60.7687 35.7067V40.2169H59.3932V35.9779C59.3932 34.9527 58.9663 34.4504 58.1018 34.4504H58.0063C56.9875 34.4504 56.247 35.3279 56.247 36.5383V40.2248H54.8666V33.3878H56.2449V34.1053C56.503 33.8225 56.8199 33.5996 57.1733 33.4524L57.174 33.4553ZM53.6318 33.3835H52.2556V40.2212H53.6311L53.6318 33.3835ZM48.1867 33.2544C48.5981 33.2494 49.0064 33.3262 49.3878 33.4804C49.7696 33.6351 50.1167 33.8644 50.4088 34.1548C51.0676 34.8795 51.4326 35.8237 51.4327 36.8031C51.4326 37.7824 51.0676 38.7266 50.4088 39.4513C50.1248 39.7362 49.7873 39.9622 49.4158 40.1164C49.0444 40.2705 48.6462 40.3497 48.2441 40.3496H48.1279C47.7276 40.3496 47.3313 40.2701 46.962 40.1157C46.5925 39.9615 46.2572 39.7357 45.9754 39.4513C45.3146 38.7271 44.9481 37.7821 44.948 36.8016C44.948 35.8212 45.3145 34.8761 45.9754 34.1519C46.2647 33.8613 46.6094 33.6319 46.9893 33.4775C47.3689 33.3222 47.776 33.2454 48.186 33.2515L48.1867 33.2544ZM48.1293 39.1521H48.2463C49.3276 39.1521 50.0501 38.2079 50.0501 36.8016C50.0501 35.3953 49.3197 34.4511 48.2434 34.4511H48.1172C47.0409 34.4511 46.3234 35.3953 46.3234 36.8016C46.3234 38.2079 47.0459 39.15 48.1286 39.15L48.1293 39.1521Z" fill="white"></path><path d="M8 31.6871V41.8849H18.1987V31.6871H8ZM17.3904 41.0776H14.4965V38.1836L11.7031 40.977H8.90972V38.1836L11.7031 35.3902V38.1836H14.4965V35.3902H8.80822V32.4935H11.7022V35.3874L14.4956 32.5941H17.289V35.3874L14.4956 38.1808H17.3895L17.3904 41.0776Z" fill="white"></path></svg> 