<svg width="403" height="122" viewBox="0 0 403 122" fill="none" xmlns="http://www.w3.org/2000/svg">
<path d="M0.616477 16.9354V0.454543H78.2656V16.9354H49.3203V95H29.5618V16.9354H0.616477ZM83.3207 95V24.0909H102.387V36.4631H103.125C104.418 32.062 106.588 28.7382 109.635 26.4915C112.681 24.214 116.19 23.0753 120.16 23.0753C121.145 23.0753 122.207 23.1368 123.346 23.2599C124.484 23.383 125.484 23.5523 126.346 23.7678V41.218C125.423 40.941 124.146 40.6948 122.515 40.4794C120.883 40.264 119.391 40.1562 118.037 40.1562C115.144 40.1562 112.558 40.7872 110.281 42.049C108.034 43.2801 106.249 45.0035 104.926 47.2195C103.633 49.4354 102.987 51.9898 102.987 54.8828V95H83.3207ZM165.529 96.3849C158.235 96.3849 151.956 94.9077 146.693 91.9531C141.461 88.9678 137.43 84.7514 134.598 79.304C131.767 73.8258 130.351 67.3473 130.351 59.8686C130.351 52.5746 131.767 46.1731 134.598 40.6641C137.43 35.1551 141.415 30.8617 146.555 27.7841C151.725 24.7064 157.788 23.1676 164.744 23.1676C169.422 23.1676 173.777 23.9216 177.808 25.4297C181.871 26.907 185.41 29.1383 188.426 32.1236C191.473 35.1089 193.843 38.8636 195.536 43.3878C197.228 47.8812 198.075 53.1439 198.075 59.1761V64.5774H138.199V52.3899H179.563C179.563 49.5585 178.947 47.0502 177.716 44.8651C176.485 42.6799 174.777 40.9718 172.592 39.7408C170.437 38.4789 167.929 37.848 165.067 37.848C162.082 37.848 159.435 38.5405 157.127 39.9254C154.849 41.2796 153.064 43.1108 151.771 45.419C150.479 47.6965 149.817 50.2356 149.786 53.0362V64.6236C149.786 68.1321 150.433 71.1636 151.725 73.718C153.049 76.2725 154.911 78.2422 157.311 79.6271C159.712 81.0121 162.559 81.7045 165.852 81.7045C168.037 81.7045 170.037 81.3968 171.853 80.7812C173.669 80.1657 175.223 79.2424 176.516 78.0114C177.808 76.7803 178.793 75.2723 179.47 73.4872L197.659 74.6875C196.736 79.0578 194.843 82.8741 191.981 86.1364C189.15 89.3679 185.487 91.8916 180.994 93.7074C176.531 95.4924 171.376 96.3849 165.529 96.3849ZM231.129 96.3388C226.605 96.3388 222.573 95.554 219.034 93.9844C215.494 92.384 212.694 90.0296 210.632 86.9212C208.6 83.782 207.585 79.8733 207.585 75.1953C207.585 71.2559 208.308 67.9474 209.754 65.2699C211.201 62.5923 213.171 60.438 215.664 58.8068C218.156 57.1757 220.988 55.9446 224.158 55.1136C227.359 54.2827 230.713 53.6979 234.222 53.3594C238.346 52.9285 241.67 52.5284 244.193 52.1591C246.717 51.759 248.548 51.1742 249.687 50.4048C250.826 49.6354 251.395 48.4967 251.395 46.9886V46.7116C251.395 43.7879 250.472 41.5258 248.625 39.9254C246.809 38.325 244.224 37.5249 240.869 37.5249C237.33 37.5249 234.514 38.3097 232.421 39.8793C230.329 41.4181 228.944 43.357 228.267 45.696L210.078 44.2188C211.001 39.91 212.817 36.1861 215.525 33.0469C218.233 29.8769 221.727 27.4455 226.004 25.7528C230.313 24.0294 235.299 23.1676 240.962 23.1676C244.901 23.1676 248.671 23.6293 252.272 24.5526C255.904 25.4759 259.12 26.907 261.921 28.8459C264.752 30.7848 266.983 33.2777 268.615 36.3246C270.246 39.3407 271.061 42.9569 271.061 47.1733V95H252.411V85.1669H251.857C250.718 87.3828 249.195 89.3371 247.286 91.0298C245.378 92.6918 243.085 93.9998 240.408 94.9538C237.73 95.8771 234.637 96.3388 231.129 96.3388ZM236.761 82.7663C239.654 82.7663 242.208 82.197 244.424 81.0582C246.64 79.8887 248.379 78.3191 249.641 76.3494C250.903 74.3797 251.534 72.1484 251.534 69.6555V62.1307C250.918 62.5308 250.072 62.9001 248.994 63.2386C247.948 63.5464 246.763 63.8388 245.44 64.1158C244.116 64.362 242.793 64.5928 241.47 64.8082C240.146 64.9929 238.946 65.1622 237.869 65.316C235.561 65.6546 233.545 66.1932 231.821 66.9318C230.098 67.6705 228.759 68.6707 227.805 69.9325C226.851 71.1636 226.374 72.7024 226.374 74.549C226.374 77.2266 227.343 79.2732 229.282 80.6889C231.252 82.0739 233.745 82.7663 236.761 82.7663ZM324.035 24.0909V38.8636H281.333V24.0909H324.035ZM291.028 7.10227H310.694V73.2102C310.694 75.026 310.971 76.4418 311.525 77.4574C312.079 78.4422 312.848 79.1347 313.833 79.5348C314.849 79.9349 316.018 80.1349 317.341 80.1349C318.265 80.1349 319.188 80.058 320.111 79.9041C321.035 79.7195 321.742 79.581 322.235 79.4886L325.328 94.1229C324.343 94.4306 322.958 94.7846 321.173 95.1847C319.388 95.6155 317.218 95.8771 314.664 95.9695C309.924 96.1541 305.769 95.5232 302.199 94.0767C298.66 92.6302 295.906 90.3835 293.936 87.3366C291.966 84.2898 290.997 80.4427 291.028 75.7955V7.10227ZM348.987 121.591C346.494 121.591 344.155 121.391 341.97 120.991C339.816 120.621 338.031 120.144 336.615 119.56L341.047 104.879C343.355 105.587 345.433 105.972 347.279 106.033C349.157 106.095 350.772 105.664 352.127 104.741C353.512 103.817 354.635 102.248 355.497 100.032L356.651 97.0312L331.214 24.0909H351.896L366.576 76.1648H367.315L382.134 24.0909H402.954L375.394 102.663C374.07 106.48 372.27 109.804 369.992 112.635C367.746 115.497 364.899 117.698 361.452 119.237C358.005 120.806 353.85 121.591 348.987 121.591Z" fill="#ECF1FF" fill-opacity="0.6"/>
</svg>
